<svg xmlns="http://www.w3.org/2000/svg" width="48" height="48" viewBox="0 0 48 48" fill="none">
  <defs>
    <linearGradient id="popper_grad" x1="10" y1="38" x2="38" y2="10" gradientUnits="userSpaceOnUse">
      <stop offset="0" stop-color="#FF6B35"/>
      <stop offset="1" stop-color="#FFD700"/>
    </linearGradient>
  </defs>
  <!-- Party popper cone -->
  <path d="M8 42L14 28L22 36Z" fill="url(#popper_grad)"/>
  <path d="M8 42L10 40L12 42Z" fill="#E05A2B"/>
  <!-- Popper rim -->
  <path d="M14 28C14 28 17 30 22 36" stroke="#FFB347" stroke-width="1.5" stroke-linecap="round"/>
  <!-- Confetti burst -->
  <circle cx="26" cy="16" r="2" fill="#FF5A6E"/>
  <circle cx="34" cy="20" r="1.5" fill="#4FC3F7"/>
  <circle cx="20" cy="12" r="1.5" fill="#66BB6A"/>
  <circle cx="38" cy="14" r="2" fill="#FFD700"/>
  <circle cx="30" cy="8" r="1.5" fill="#AB47BC"/>
  <!-- Confetti rectangles -->
  <rect x="16" y="18" width="3" height="1.5" rx="0.5" fill="#4FC3F7" transform="rotate(-30 17 18)"/>
  <rect x="32" y="10" width="3" height="1.5" rx="0.5" fill="#FF5A6E" transform="rotate(20 33 10)"/>
  <rect x="28" y="24" width="3" height="1.5" rx="0.5" fill="#66BB6A" transform="rotate(-15 29 24)"/>
  <rect x="22" cy="8" width="2.5" height="1.2" rx="0.5" fill="#FFD700" transform="rotate(45 23 8)"/>
  <!-- Star confetti -->
  <path d="M38 26L39 28L41 28L39.5 29.5L40 32L38 30.5L36 32L36.5 29.5L35 28L37 28Z" fill="#FF5A6E"/>
  <path d="M14 8L15 10L17 10L15.5 11.5L16 14L14 12.5L12 14L12.5 11.5L11 10L13 10Z" fill="#4FC3F7"/>
  <!-- Streamers -->
  <path d="M18 26C22 22 26 24 30 18" stroke="#AB47BC" stroke-width="1.2" stroke-linecap="round" fill="none"/>
  <path d="M20 30C24 26 28 28 34 24" stroke="#FFD700" stroke-width="1.2" stroke-linecap="round" fill="none"/>
</svg>
