<svg xmlns="http://www.w3.org/2000/svg" width="48" height="48" viewBox="0 0 48 48" fill="none">
  <defs>
    <linearGradient id="palette_grad" x1="8" y1="8" x2="40" y2="40" gradientUnits="userSpaceOnUse">
      <stop offset="0" stop-color="#FFE0B2"/>
      <stop offset="1" stop-color="#FFCC80"/>
    </linearGradient>
  </defs>
  <!-- Palette shape -->
  <path d="M24 4C12.954 4 4 12.954 4 24C4 35.046 12.954 44 24 44C26.2 44 28 42.2 28 40C28 39 27.6 38.1 27 37.4C26.4 36.7 26 35.8 26 34.8C26 32.6 27.8 30.8 30 30.8H34C39.522 30.8 44 26.322 44 20.8C44 11.5 35.046 4 24 4Z"
        fill="url(#palette_grad)"/>
  <!-- Paint dots -->
  <circle cx="14" cy="18" r="4" fill="#EF5350"/>
  <circle cx="22" cy="12" r="3.5" fill="#42A5F5"/>
  <circle cx="32" cy="14" r="3.5" fill="#66BB6A"/>
  <circle cx="14" cy="30" r="3.5" fill="#AB47BC"/>
  <circle cx="34" cy="24" r="3" fill="#FFD700"/>
  <!-- Dot highlights -->
  <circle cx="12.5" cy="16.5" r="1.2" fill="white" opacity="0.4"/>
  <circle cx="20.5" cy="10.5" r="1" fill="white" opacity="0.4"/>
  <circle cx="30.5" cy="12.5" r="1" fill="white" opacity="0.4"/>
  <circle cx="12.5" cy="28.5" r="1" fill="white" opacity="0.4"/>
  <!-- Palette highlight -->
  <path d="M12 10C16 6 20 5 24 4" stroke="white" stroke-width="1.2" stroke-linecap="round" opacity="0.3" fill="none"/>
</svg>
