<svg xmlns="http://www.w3.org/2000/svg" width="48" height="48" viewBox="0 0 48 48" fill="none">
  <defs>
    <linearGradient id="sparkle_grad" x1="12" y1="4" x2="36" y2="44" gradientUnits="userSpaceOnUse">
      <stop offset="0" stop-color="#FFD54F"/>
      <stop offset="0.5" stop-color="#FFC107"/>
      <stop offset="1" stop-color="#FF8F00"/>
    </linearGradient>
    <linearGradient id="sparkle_small" x1="0" y1="0" x2="48" y2="48" gradientUnits="userSpaceOnUse">
      <stop offset="0" stop-color="#CE93D8"/>
      <stop offset="1" stop-color="#AB47BC"/>
    </linearGradient>
  </defs>
  <!-- Main 4-point sparkle -->
  <path d="M24 2L28 18L44 24L28 30L24 46L20 30L4 24L20 18Z" fill="url(#sparkle_grad)"/>
  <!-- Inner highlight -->
  <path d="M24 10L26 18L34 24L26 26" fill="white" opacity="0.25"/>
  <!-- Small sparkle top-right -->
  <path d="M38 4L39.5 8.5L44 10L39.5 11.5L38 16L36.5 11.5L32 10L36.5 8.5Z" fill="url(#sparkle_small)"/>
  <!-- Small sparkle bottom-left -->
  <path d="M10 34L11.5 37.5L15 39L11.5 40.5L10 44L8.5 40.5L5 39L8.5 37.5Z" fill="url(#sparkle_small)" opacity="0.7"/>
  <!-- Tiny dot sparkles -->
  <circle cx="40" cy="36" r="1.5" fill="#FFD54F" opacity="0.6"/>
  <circle cx="8" cy="12" r="1.5" fill="#CE93D8" opacity="0.5"/>
</svg>
